<svg id="Layer_1" data-name="Layer 1" xmlns="http://www.w3.org/2000/svg" viewBox="0 0 178.68 125.58"><defs><style>.cls-1{fill:#f8f8f8;stroke:#050000;}</style></defs><title>open-eid-logo</title><path class="cls-1" d="M198.65,251.88c-24,0-47.93-.3-71.88.16-8.79.17-16.37-8-16.39-17.53,0-22.5-.17-45-.05-67.51,0-8.78-.79-17.58.48-26.37a12,12,0,0,1,7.8-9.92c4.24-1.73,8.56-3.16,13.43-3.14,44.32.14,88.63.06,132.95,0,6.24,0,11.9,1.22,17.09,5.21,4.21,3.23,5.53,7.44,5.55,12,.09,20.66.35,41.31-.11,62-.2,8.91-.36,17.92.18,26.85.64,10.48-8,18.55-16.62,18.43-18.14-.24-36.3,0-54.44,0-6,0-12,0-18,0Zm.41-8.15c23.14,0,46.28-.06,69.42,0,9.4,0,11.48-2.27,11.45-11.31-.11-29.52.09-59,.25-88.56,0-1.42.08-2.55-1.14-3.54-3.11-2.56-6.13-4.63-10.63-4.61-35.11.16-70.23,0-105.34,0-11.81,0-23.63-.06-35.44.19-6.09.13-9.55,4.25-9.54,10.11q.09,43.54,0,87.09c0,8,2.31,10.55,10.51,10.55Z" transform="translate(-109.6 -127.07)"/><path class="cls-1" d="M241.91,189.81c-4.08-.69-9.4,1.93-13.38-2.85-1-1.26-1.71-2.33-1.47-4,1.4-9.76-.4-19.58.53-29.36.37-3.83,3-7,6.74-6.46,4.68.62,9.26,0,13.87-.3,14.89-.95,24.86,11.18,20.57,25.16C263.88,188,261.27,189.75,241.91,189.81Zm15.22-19.1c-.31-11.39-4.58-15.74-13.42-15.58-2.93.05-4.3,1.17-4.28,4.15,0,5.49-.06,11-.09,16.47,0,1.32-.26,3.27,1.27,3.41,4.08.38,8.62,2.08,12.2.1C256.18,177.38,256.8,172.95,257.13,170.71Z" transform="translate(-109.6 -127.07)"/><path class="cls-1" d="M141.85,199.36a39.53,39.53,0,0,0-6.47.06c-4.18.7-5.91-.74-5.55-5,.26-3.15,0-6.34.19-9.5.23-3.51,2-5.46,5.82-5.33,4.33.15,8.66,0,13,.12,2.91.1,5.25.84,4.45,4.77-.39,1.92-.05,4,0,6,0,8.82,0,8.82-8.88,8.75h-2.5Z" transform="translate(-109.6 -127.07)"/><path class="cls-1" d="M221.39,173.84a72,72,0,0,0,.05,8c.48,4.24-1.85,6.67-5.28,7.8-3,1-6.93-2.69-7.18-6.61-.29-4.64.07-9.32-.07-14-.11-3.68,3.48-3,5.12-4.56,1.1-1.08,3-1.3,4.49-2,2.14-1.05,3.05-.57,3,1.92-.11,3.16,0,6.32,0,9.48Z" transform="translate(-109.6 -127.07)"/><path class="cls-1" d="M208.83,156.28a16.65,16.65,0,0,1,.8-5.38c1.16-3.44,3.5-4.44,6.91-4.2,3.59.26,4.7,3.07,5.31,5.59.73,3-.18,6-3.81,7.07-1.11.33-2.26.54-3.36.9C209.23,162,208.87,161.81,208.83,156.28Z" transform="translate(-109.6 -127.07)"/></svg>