<?xml version="1.0" encoding="utf-8"?>
<!-- Generator: Adobe Illustrator 20.1.0, SVG Export Plug-In . SVG Version: 6.00 Build 0)  -->
<svg version="1.1" id="Layer_1" xmlns="http://www.w3.org/2000/svg" xmlns:xlink="http://www.w3.org/1999/xlink" x="0px" y="0px"
	 viewBox="0 0 178.7 125.6" enable-background="new 0 0 178.7 125.6" xml:space="preserve">
<title>open-eid-logo</title>
<path stroke="#FFFFFF" d="M17.2,125c-8.8,0.2-16.4-8-16.4-17.5c0-22.5-0.2-45-0.1-67.5c0-8.8-0.8-17.6,0.5-26.4C1.7,9,4.7,5.2,9,3.6
	c4.2-1.7,8.6-3.2,13.4-3.1c44.3,0.1,88.6,0.1,132.9,0c6.2,0,11.9,1.2,17.1,5.2c4.2,3.2,5.5,7.4,5.5,12c0.1,20.7,0.4,41.3-0.1,62
	c-0.2,8.9-0.4,17.9,0.2,26.9c0.6,10.5-8,18.6-16.6,18.4C142.3,125.1,40.9,125,17.2,125z"/>
<path fill="#F8F8F8" stroke="#050000" d="M89.5,116.7c23.1,0,46.3-0.1,69.4,0c9.4,0,11.5-2.3,11.5-11.3c-0.1-29.5,0.1-59,0.2-88.6
	c0-1.4,0.1-2.6-1.1-3.5c-3.1-2.6-6.1-4.6-10.6-4.6c-35.1,0.2-70.2,0-105.3,0C41.7,8.6,29.8,8.6,18,8.8C11.9,9,8.5,13.1,8.5,18.9
	C8.5,48,8.5,77,8.5,106c0,8,2.3,10.6,10.5,10.6L89.5,116.7z"/>
<path stroke="#050000" d="M132.3,62.7c-6.7,0.1-9,1.1-13.4-2.9c-1-1.3-1.7-2.3-1.5-4c1.4-9.8-0.4-19.6,0.5-29.4
	c0.4-3.8,3.1-5.7,6.7-6.5c6.2-0.3,8.5-0.3,13.9-0.3c15.2-0.2,24.9,11.2,20.6,25.2C154.3,60.9,153.2,62.6,132.3,62.7z M147.5,43.6
	c-0.3-11.4-4.6-15.7-13.4-15.6c-2.9,0.1-4.3,1.2-4.3,4.1c0,5.5-0.1,11-0.1,16.5c0,1.3-0.6,4.3,1,4.5c4.1,0.4,8.9,1,12.5-0.9
	C146.6,50.3,147.2,45.9,147.5,43.6L147.5,43.6z"/>
<path stroke="#050000" d="M25.8,72.3c-4.8,0.2-5.9-0.7-5.6-5c0.3-3.1,0-6.3,0.2-9.5c0.2-3.5,2-5.5,5.8-5.3c4.3,0.1,8.7,0,13,0.1
	c2.9,0.1,4.6,0.5,4.4,4.8c0.2,2.1,0.2,3.4,0,6c0,8.8,0,8.8-8.9,8.8C34.8,72.2,28.4,72.4,25.8,72.3z"/>
<path stroke="#050000" d="M111.8,54.8c0.5,4.2-1.9,6.7-5.3,7.8c-3,1-6.9-2.7-7.2-6.6c-0.3-4.6,0.1-9.3-0.1-14
	c-0.1-3.7,8.1-5.9,9.6-6.6c2.1-1.1,3.1-0.6,3,1.9C111.8,40.5,111.7,52.1,111.8,54.8z"/>
<path fill="#ED6A00" stroke="#ED6A00" d="M99.2,29.2c0-1.8,0.2-3.6,0.8-5.4c1.2-3.4,3.5-4.4,6.9-4.2c3.6,0.3,4.7,3.1,5.3,5.6
	c0.7,3,0.2,5.3-3.8,7.1c-1.1,0.3-2.3,0.5-3.4,0.9C99.3,34.7,99.3,34.7,99.2,29.2z"/>
</svg>
