<svg id="Layer_1" data-name="Layer 1" xmlns="http://www.w3.org/2000/svg" viewBox="0 0 155.91 90.29"><defs><style>.cls-1,.cls-6{fill:#fff;}.cls-2{fill:#1a1a18;}.cls-3{fill:#134094;}.cls-4{fill:#ffed00;}.cls-4,.cls-5,.cls-6,.cls-7{fill-rule:evenodd;}.cls-5{fill:#0076be;}</style></defs><title>eu_logo</title><rect class="cls-1" width="155.91" height="90.29"/><polygon class="cls-2" points="24.3 68.33 24.3 62.67 28.4 62.67 28.4 63.34 25.05 63.34 25.05 65.07 28.18 65.07 28.18 65.74 25.05 65.74 25.05 67.67 28.53 67.67 28.53 68.33 24.3 68.33"/><path class="cls-2" d="M32.66,68.84v-.6a1.5,1.5,0,0,1-1.3.69,1.66,1.66,0,0,1-.68-.14,1.11,1.11,0,0,1-.47-.35,1.29,1.29,0,0,1-.21-.52,3.59,3.59,0,0,1,0-.65V64.74h.69V67a4.14,4.14,0,0,0,0,.73.74.74,0,0,0,.28.43.87.87,0,0,0,.53.16,1.14,1.14,0,0,0,.59-.16.89.89,0,0,0,.39-.44,2.18,2.18,0,0,0,.11-.8v-2.2h.69v4.1Z" transform="translate(-0.5 -0.5)"/><path class="cls-2" d="M34.36,68.84v-4.1H35v.62a1.69,1.69,0,0,1,.44-.57.77.77,0,0,1,.45-.14,1.36,1.36,0,0,1,.71.22l-.24.65a1,1,0,0,0-.51-.15.66.66,0,0,0-.41.14.74.74,0,0,0-.26.38,2.69,2.69,0,0,0-.12.81v2.15Z" transform="translate(-0.5 -0.5)"/><path class="cls-2" d="M36.74,66.79a2.11,2.11,0,0,1,.63-1.69,1.91,1.91,0,0,1,1.29-.46,1.84,1.84,0,0,1,1.38.56,2.1,2.1,0,0,1,.54,1.53A2.71,2.71,0,0,1,40.35,68a1.68,1.68,0,0,1-.69.7,2,2,0,0,1-1,.25,1.84,1.84,0,0,1-1.39-.55,2.2,2.2,0,0,1-.53-1.59Zm.71,0A1.74,1.74,0,0,0,37.8,68a1.14,1.14,0,0,0,1.73,0,1.79,1.79,0,0,0,.34-1.2,1.69,1.69,0,0,0-.35-1.15,1.15,1.15,0,0,0-1.72,0A1.74,1.74,0,0,0,37.46,66.79Z" transform="translate(-0.5 -0.5)"/><path class="cls-2" d="M41.14,66.79a2.11,2.11,0,0,1,.63-1.69,1.91,1.91,0,0,1,1.29-.46,1.84,1.84,0,0,1,1.38.56A2.1,2.1,0,0,1,45,66.73,2.71,2.71,0,0,1,44.75,68a1.68,1.68,0,0,1-.69.7,2,2,0,0,1-1,.25,1.84,1.84,0,0,1-1.39-.55,2.2,2.2,0,0,1-.53-1.59Zm.71,0A1.74,1.74,0,0,0,42.2,68a1.14,1.14,0,0,0,1.73,0,1.79,1.79,0,0,0,.34-1.2,1.69,1.69,0,0,0-.35-1.15,1.15,1.15,0,0,0-1.72,0A1.74,1.74,0,0,0,41.86,66.79Z" transform="translate(-0.5 -0.5)"/><path class="cls-2" d="M45.8,70.41V64.74h.63v.53a1.55,1.55,0,0,1,.51-.47,1.38,1.38,0,0,1,.68-.16,1.63,1.63,0,0,1,.93.27,1.65,1.65,0,0,1,.61.76,2.77,2.77,0,0,1,.21,1.08,2.73,2.73,0,0,1-.23,1.13,1.71,1.71,0,0,1-1.56,1,1.31,1.31,0,0,1-.62-.15,1.42,1.42,0,0,1-.45-.37v2Zm.63-3.6A1.79,1.79,0,0,0,46.75,68a1,1,0,0,0,.78.38,1,1,0,0,0,.79-.39,1.86,1.86,0,0,0,.33-1.21,1.81,1.81,0,0,0-.32-1.17,1,1,0,0,0-.77-.39,1,1,0,0,0-.79.42A1.86,1.86,0,0,0,46.43,66.81Z" transform="translate(-0.5 -0.5)"/><path class="cls-2" d="M52.87,68.33a2.64,2.64,0,0,1-.74.46,2.17,2.17,0,0,1-.77.13,1.49,1.49,0,0,1-1-.33,1.09,1.09,0,0,1-.36-.84,1.11,1.11,0,0,1,.14-.55,1.13,1.13,0,0,1,.36-.4,1.7,1.7,0,0,1,.5-.23,4.92,4.92,0,0,1,.62-.1,6.29,6.29,0,0,0,1.24-.24c0-.09,0-.16,0-.18a.76.76,0,0,0-.2-.6,1.15,1.15,0,0,0-.79-.24,1.23,1.23,0,0,0-.72.17,1.06,1.06,0,0,0-.35.61l-.68-.09a1.68,1.68,0,0,1,.3-.7,1.33,1.33,0,0,1,.61-.41,2.74,2.74,0,0,1,.93-.15,2.48,2.48,0,0,1,.85.12,1.14,1.14,0,0,1,.48.31,1.1,1.1,0,0,1,.22.47,4,4,0,0,1,0,.64v.93a9.63,9.63,0,0,0,0,1.23,1.55,1.55,0,0,0,.18.49H53a1.47,1.47,0,0,1-.14-.51Zm-.06-1.55a5.08,5.08,0,0,1-1.13.26,2.61,2.61,0,0,0-.61.14.61.61,0,0,0-.16,1,.91.91,0,0,0,.62.18,1.43,1.43,0,0,0,.71-.18,1.09,1.09,0,0,0,.46-.48,1.67,1.67,0,0,0,.11-.69Z" transform="translate(-0.5 -0.5)"/><polygon class="cls-2" points="56.35 68.33 56.35 62.67 57.1 62.67 57.1 67.67 59.89 67.67 59.89 68.33 56.35 68.33"/><path class="cls-2" d="M61.19,64v-.8h.7V64Zm0,4.86v-4.1h.7v4.1Z" transform="translate(-0.5 -0.5)"/><path class="cls-2" d="M62.95,64v-.8h.7V64Zm0,4.86v-4.1h.7v4.1Z" transform="translate(-0.5 -0.5)"/><path class="cls-2" d="M66.22,68.21l.1.61a2.6,2.6,0,0,1-.52.06,1.19,1.19,0,0,1-.59-.12.66.66,0,0,1-.29-.32,2.47,2.47,0,0,1-.09-.82V65.28h-.51v-.54h.51v-1l.69-.42v1.43h.7v.54h-.7v2.4a1.24,1.24,0,0,0,0,.38.3.3,0,0,0,.12.14.47.47,0,0,0,.24,0Z" transform="translate(-0.5 -0.5)"/><polygon class="cls-2" points="11.78 76.4 11.78 70.74 15.88 70.74 15.88 71.41 12.53 71.41 12.53 73.14 15.66 73.14 15.66 73.81 12.53 73.81 12.53 75.74 16.01 75.74 16.01 76.4 11.78 76.4"/><path class="cls-2" d="M20.14,76.91v-.6a1.5,1.5,0,0,1-1.3.69,1.66,1.66,0,0,1-.68-.14,1.11,1.11,0,0,1-.47-.35,1.29,1.29,0,0,1-.21-.52,3.6,3.6,0,0,1,0-.65V72.81h.69v2.27a4.15,4.15,0,0,0,0,.73.74.74,0,0,0,.28.43.87.87,0,0,0,.53.16,1.14,1.14,0,0,0,.59-.16A.89.89,0,0,0,20,75.8a2.18,2.18,0,0,0,.11-.8v-2.2h.69v4.1Z" transform="translate(-0.5 -0.5)"/><path class="cls-2" d="M21.84,76.91v-4.1h.62v.62a1.69,1.69,0,0,1,.44-.57.77.77,0,0,1,.45-.14,1.36,1.36,0,0,1,.71.22l-.24.65a1,1,0,0,0-.51-.15.66.66,0,0,0-.41.14.75.75,0,0,0-.26.38,2.69,2.69,0,0,0-.12.81v2.15Z" transform="translate(-0.5 -0.5)"/><path class="cls-2" d="M24.22,74.86a2.11,2.11,0,0,1,.63-1.69,1.91,1.91,0,0,1,1.29-.46,1.84,1.84,0,0,1,1.38.55,2.1,2.1,0,0,1,.54,1.53A2.71,2.71,0,0,1,27.83,76a1.68,1.68,0,0,1-.69.7,2,2,0,0,1-1,.25,1.84,1.84,0,0,1-1.39-.55,2.2,2.2,0,0,1-.53-1.59Zm.71,0A1.74,1.74,0,0,0,25.28,76,1.14,1.14,0,0,0,27,76a1.79,1.79,0,0,0,.34-1.2A1.69,1.69,0,0,0,27,73.68a1.15,1.15,0,0,0-1.72,0A1.74,1.74,0,0,0,24.94,74.86Z" transform="translate(-0.5 -0.5)"/><path class="cls-2" d="M28.62,74.86a2.11,2.11,0,0,1,.63-1.69,1.91,1.91,0,0,1,1.29-.46,1.84,1.84,0,0,1,1.38.55,2.1,2.1,0,0,1,.54,1.53A2.71,2.71,0,0,1,32.23,76a1.68,1.68,0,0,1-.69.7,2,2,0,0,1-1,.25,1.84,1.84,0,0,1-1.39-.55,2.2,2.2,0,0,1-.53-1.59Zm.71,0A1.74,1.74,0,0,0,29.68,76a1.14,1.14,0,0,0,1.73,0,1.79,1.79,0,0,0,.34-1.2,1.69,1.69,0,0,0-.35-1.15,1.15,1.15,0,0,0-1.72,0A1.74,1.74,0,0,0,29.34,74.86Z" transform="translate(-0.5 -0.5)"/><path class="cls-2" d="M33.28,78.48V72.81h.63v.53a1.55,1.55,0,0,1,.51-.47,1.38,1.38,0,0,1,.68-.16A1.63,1.63,0,0,1,36,73a1.65,1.65,0,0,1,.61.76,2.77,2.77,0,0,1,.21,1.08A2.73,2.73,0,0,1,36.61,76a1.71,1.71,0,0,1-1.56,1,1.31,1.31,0,0,1-.62-.15,1.42,1.42,0,0,1-.45-.37v2Zm.63-3.6A1.79,1.79,0,0,0,34.23,76a1,1,0,0,0,.78.38A1,1,0,0,0,35.8,76a1.86,1.86,0,0,0,.33-1.21,1.81,1.81,0,0,0-.32-1.17,1,1,0,0,0-.77-.39,1,1,0,0,0-.79.42A1.86,1.86,0,0,0,33.91,74.88Z" transform="translate(-0.5 -0.5)"/><path class="cls-2" d="M40.35,76.4a2.64,2.64,0,0,1-.74.46,2.16,2.16,0,0,1-.77.13,1.49,1.49,0,0,1-1-.33,1.09,1.09,0,0,1-.36-.84,1.11,1.11,0,0,1,.14-.55,1.13,1.13,0,0,1,.36-.4,1.7,1.7,0,0,1,.5-.23,4.93,4.93,0,0,1,.62-.1,6.3,6.3,0,0,0,1.24-.24c0-.1,0-.16,0-.18a.76.76,0,0,0-.2-.6,1.16,1.16,0,0,0-.79-.24,1.23,1.23,0,0,0-.72.17,1.06,1.06,0,0,0-.35.61L37.56,74a1.68,1.68,0,0,1,.3-.7,1.33,1.33,0,0,1,.61-.41,2.74,2.74,0,0,1,.93-.15,2.48,2.48,0,0,1,.85.12,1.14,1.14,0,0,1,.48.31,1.1,1.1,0,0,1,.22.47,4,4,0,0,1,0,.64v.93a9.63,9.63,0,0,0,0,1.23,1.54,1.54,0,0,0,.18.49h-.73a1.47,1.47,0,0,1-.14-.51Zm-.06-1.55a5.07,5.07,0,0,1-1.13.26,2.61,2.61,0,0,0-.61.14.61.61,0,0,0-.16,1,.91.91,0,0,0,.62.18,1.43,1.43,0,0,0,.71-.18,1.09,1.09,0,0,0,.46-.48,1.67,1.67,0,0,0,.11-.69Z" transform="translate(-0.5 -0.5)"/><path class="cls-2" d="M44,75.68l.69-.11a1,1,0,0,0,.32.63,1.12,1.12,0,0,0,.74.22,1.09,1.09,0,0,0,.71-.19.59.59,0,0,0,.23-.46.42.42,0,0,0-.21-.37,3,3,0,0,0-.71-.23,6.43,6.43,0,0,1-1.06-.33,1,1,0,0,1-.6-.94,1,1,0,0,1,.13-.51,1.11,1.11,0,0,1,.34-.39,1.46,1.46,0,0,1,.44-.2,2.11,2.11,0,0,1,.6-.08,2.39,2.39,0,0,1,.85.14,1.15,1.15,0,0,1,.54.38,1.47,1.47,0,0,1,.24.64l-.68.09a.75.75,0,0,0-.27-.49,1,1,0,0,0-.63-.18,1.13,1.13,0,0,0-.68.16.46.46,0,0,0-.21.37.38.38,0,0,0,.09.24.62.62,0,0,0,.27.19l.61.18a8.46,8.46,0,0,1,1,.32,1,1,0,0,1,.46.37,1,1,0,0,1,.17.59,1.18,1.18,0,0,1-.2.65,1.32,1.32,0,0,1-.59.47,2.12,2.12,0,0,1-.86.17,1.93,1.93,0,0,1-1.22-.33A1.54,1.54,0,0,1,44,75.68Z" transform="translate(-0.5 -0.5)"/><path class="cls-2" d="M49.74,76.28l.1.61a2.6,2.6,0,0,1-.52.06,1.19,1.19,0,0,1-.59-.12.67.67,0,0,1-.29-.32,2.47,2.47,0,0,1-.09-.82V73.35h-.51v-.54h.51v-1l.69-.42v1.43h.7v.54H49v2.4a1.24,1.24,0,0,0,0,.38.3.3,0,0,0,.12.14.47.47,0,0,0,.24,0Z" transform="translate(-0.5 -0.5)"/><path class="cls-2" d="M50.41,76.91v-4.1H51v.62a1.69,1.69,0,0,1,.44-.57.77.77,0,0,1,.45-.14,1.36,1.36,0,0,1,.71.22l-.24.65a1,1,0,0,0-.51-.15.66.66,0,0,0-.41.14.75.75,0,0,0-.26.38,2.69,2.69,0,0,0-.12.81v2.15Z" transform="translate(-0.5 -0.5)"/><path class="cls-2" d="M55.74,76.91v-.6a1.5,1.5,0,0,1-1.3.69,1.66,1.66,0,0,1-.68-.14,1.11,1.11,0,0,1-.47-.35,1.29,1.29,0,0,1-.21-.52,3.59,3.59,0,0,1,0-.65V72.81h.69v2.27a4.14,4.14,0,0,0,0,.73.74.74,0,0,0,.28.43.87.87,0,0,0,.53.16,1.14,1.14,0,0,0,.59-.16.89.89,0,0,0,.39-.44,2.18,2.18,0,0,0,.11-.8v-2.2h.69v4.1Z" transform="translate(-0.5 -0.5)"/><polygon class="cls-2" points="56.95 76.4 56.95 70.74 57.65 70.74 57.65 73.97 59.3 72.3 60.19 72.3 58.63 73.83 60.35 76.4 59.5 76.4 58.14 74.31 57.65 74.78 57.65 76.4 56.95 76.4"/><path class="cls-2" d="M62.92,76.28l.1.61a2.6,2.6,0,0,1-.52.06,1.19,1.19,0,0,1-.59-.12.67.67,0,0,1-.29-.32,2.47,2.47,0,0,1-.09-.82V73.35H61v-.54h.51v-1l.69-.42v1.43h.7v.54h-.7v2.4a1.24,1.24,0,0,0,0,.38.3.3,0,0,0,.12.14.47.47,0,0,0,.24,0Z" transform="translate(-0.5 -0.5)"/><path class="cls-2" d="M66.29,76.91v-.6A1.5,1.5,0,0,1,65,77a1.66,1.66,0,0,1-.68-.14,1.11,1.11,0,0,1-.47-.35,1.29,1.29,0,0,1-.21-.52,3.59,3.59,0,0,1,0-.65V72.81h.69v2.27a4.14,4.14,0,0,0,0,.73.74.74,0,0,0,.28.43.87.87,0,0,0,.53.16,1.14,1.14,0,0,0,.59-.16.89.89,0,0,0,.39-.44,2.18,2.18,0,0,0,.11-.8v-2.2h.69v4.1Z" transform="translate(-0.5 -0.5)"/><path class="cls-2" d="M70.69,76.91v-.6a1.5,1.5,0,0,1-1.3.69,1.66,1.66,0,0,1-.68-.14,1.11,1.11,0,0,1-.47-.35A1.29,1.29,0,0,1,68,76a3.59,3.59,0,0,1,0-.65V72.81h.69v2.27a4.14,4.14,0,0,0,0,.73.74.74,0,0,0,.28.43.87.87,0,0,0,.53.16,1.14,1.14,0,0,0,.59-.16.89.89,0,0,0,.39-.44,2.18,2.18,0,0,0,.11-.8v-2.2h.69v4.1Z" transform="translate(-0.5 -0.5)"/><path class="cls-2" d="M72.39,76.91v-4.1H73v.62a1.69,1.69,0,0,1,.44-.57.77.77,0,0,1,.45-.14,1.36,1.36,0,0,1,.71.22l-.24.65a1,1,0,0,0-.51-.15.66.66,0,0,0-.41.14.75.75,0,0,0-.26.38,2.69,2.69,0,0,0-.12.81v2.15Z" transform="translate(-0.5 -0.5)"/><path class="cls-2" d="M75,72v-.8h.7V72Zm0,4.86v-4.1h.7v4.1Z" transform="translate(-0.5 -0.5)"/><rect class="cls-2" x="76.02" y="74.01" width="2.14" height="0.7"/><path class="cls-2" d="M7.78,80.12v-.81h.69v.81ZM6.9,86.57,7,86a1.44,1.44,0,0,0,.33.05.37.37,0,0,0,.32-.14,1.43,1.43,0,0,0,.11-.7V80.88h.69V85.2a2,2,0,0,1-.2,1.05.92.92,0,0,1-.83.39A2,2,0,0,1,6.9,86.57Z" transform="translate(-0.5 -0.5)"/><path class="cls-2" d="M12.22,84.47a2.64,2.64,0,0,1-.74.46,2.16,2.16,0,0,1-.77.13,1.49,1.49,0,0,1-1-.33,1.09,1.09,0,0,1-.36-.84,1.11,1.11,0,0,1,.14-.55,1.13,1.13,0,0,1,.36-.4,1.7,1.7,0,0,1,.5-.23,5,5,0,0,1,.62-.1,6.3,6.3,0,0,0,1.24-.24c0-.09,0-.16,0-.18a.76.76,0,0,0-.2-.6,1.16,1.16,0,0,0-.79-.24,1.23,1.23,0,0,0-.72.17,1.06,1.06,0,0,0-.35.61L9.42,82a1.68,1.68,0,0,1,.3-.7,1.33,1.33,0,0,1,.61-.41,2.74,2.74,0,0,1,.93-.15,2.48,2.48,0,0,1,.85.12,1.14,1.14,0,0,1,.48.31,1.1,1.1,0,0,1,.22.47,4,4,0,0,1,0,.64v.93a9.63,9.63,0,0,0,0,1.23,1.54,1.54,0,0,0,.18.49h-.73a1.47,1.47,0,0,1-.14-.51Zm-.06-1.55a5.07,5.07,0,0,1-1.13.26,2.61,2.61,0,0,0-.61.14.61.61,0,0,0-.16,1,.91.91,0,0,0,.62.18,1.43,1.43,0,0,0,.71-.18,1.09,1.09,0,0,0,.46-.48,1.67,1.67,0,0,0,.11-.69Z" transform="translate(-0.5 -0.5)"/><path class="cls-2" d="M16.14,80.12v-.8h.7v.8Zm0,4.86v-4.1h.7V85Z" transform="translate(-0.5 -0.5)"/><path class="cls-2" d="M17.89,85v-4.1h.62v.58a1.47,1.47,0,0,1,1.3-.68,1.72,1.72,0,0,1,.68.13,1.06,1.06,0,0,1,.47.35,1.33,1.33,0,0,1,.22.51,4.06,4.06,0,0,1,0,.68V85h-.7V82.48a1.89,1.89,0,0,0-.08-.64.67.67,0,0,0-.29-.33.91.91,0,0,0-.49-.13,1.13,1.13,0,0,0-.77.28,1.39,1.39,0,0,0-.32,1.07V85Z" transform="translate(-0.5 -0.5)"/><path class="cls-2" d="M23.43,85l-1.56-4.1h.73l.88,2.46q.14.4.26.83c.06-.22.15-.48.26-.78l.91-2.5h.71L24.08,85Z" transform="translate(-0.5 -0.5)"/><path class="cls-2" d="M29,83.66l.72.09a1.76,1.76,0,0,1-.63,1,1.9,1.9,0,0,1-1.17.35,1.87,1.87,0,0,1-1.43-.55A2.16,2.16,0,0,1,26,83a2.27,2.27,0,0,1,.53-1.61,1.8,1.8,0,0,1,1.38-.57,1.75,1.75,0,0,1,1.34.56,2.22,2.22,0,0,1,.52,1.57s0,.1,0,.19H26.73a1.57,1.57,0,0,0,.38,1,1.14,1.14,0,0,0,.86.36,1.06,1.06,0,0,0,.65-.2,1.32,1.32,0,0,0,.43-.64Zm-2.28-1.12h2.29a1.38,1.38,0,0,0-.26-.77,1.07,1.07,0,0,0-.86-.4,1.11,1.11,0,0,0-.81.32A1.27,1.27,0,0,0,26.77,82.53Z" transform="translate(-0.5 -0.5)"/><path class="cls-2" d="M30.36,83.75l.69-.11a1,1,0,0,0,.32.63,1.12,1.12,0,0,0,.74.22,1.09,1.09,0,0,0,.71-.2.59.59,0,0,0,.23-.46.42.42,0,0,0-.21-.37,3,3,0,0,0-.71-.23,6.43,6.43,0,0,1-1.06-.33,1,1,0,0,1-.6-.94,1,1,0,0,1,.13-.51,1.11,1.11,0,0,1,.34-.39,1.46,1.46,0,0,1,.44-.2,2.11,2.11,0,0,1,.6-.08,2.39,2.39,0,0,1,.85.14,1.15,1.15,0,0,1,.54.38,1.47,1.47,0,0,1,.24.64l-.68.09a.75.75,0,0,0-.27-.49,1,1,0,0,0-.63-.18,1.13,1.13,0,0,0-.68.16.46.46,0,0,0-.21.37.38.38,0,0,0,.09.24.62.62,0,0,0,.27.19l.61.18a8.45,8.45,0,0,1,1,.32,1,1,0,0,1,.46.37,1,1,0,0,1,.17.59,1.18,1.18,0,0,1-.2.65,1.32,1.32,0,0,1-.59.47,2.13,2.13,0,0,1-.86.17,1.93,1.93,0,0,1-1.22-.33A1.54,1.54,0,0,1,30.36,83.75Z" transform="translate(-0.5 -0.5)"/><path class="cls-2" d="M36.11,84.36l.1.61a2.6,2.6,0,0,1-.52.06,1.19,1.19,0,0,1-.59-.12.67.67,0,0,1-.29-.32,2.47,2.47,0,0,1-.09-.82V81.42h-.51v-.54h.51v-1l.69-.42v1.43h.7v.54h-.7v2.4a1.24,1.24,0,0,0,0,.38.3.3,0,0,0,.12.14.47.47,0,0,0,.24,0Z" transform="translate(-0.5 -0.5)"/><path class="cls-2" d="M39.6,83.66l.72.09a1.76,1.76,0,0,1-.63,1,1.9,1.9,0,0,1-1.17.35,1.87,1.87,0,0,1-1.43-.55A2.16,2.16,0,0,1,36.56,83a2.27,2.27,0,0,1,.53-1.61,1.8,1.8,0,0,1,1.38-.57,1.75,1.75,0,0,1,1.34.56,2.22,2.22,0,0,1,.52,1.57s0,.1,0,.19H37.28a1.57,1.57,0,0,0,.38,1,1.14,1.14,0,0,0,.86.36,1.06,1.06,0,0,0,.65-.2,1.32,1.32,0,0,0,.43-.64Zm-2.28-1.12H39.6a1.38,1.38,0,0,0-.26-.77,1.07,1.07,0,0,0-.86-.4,1.11,1.11,0,0,0-.81.32A1.27,1.27,0,0,0,37.31,82.53Z" transform="translate(-0.5 -0.5)"/><path class="cls-2" d="M44,83.66l.72.09a1.76,1.76,0,0,1-.63,1,1.9,1.9,0,0,1-1.17.35,1.87,1.87,0,0,1-1.43-.55A2.16,2.16,0,0,1,41,83a2.27,2.27,0,0,1,.53-1.61,1.8,1.8,0,0,1,1.38-.57,1.75,1.75,0,0,1,1.34.56,2.22,2.22,0,0,1,.52,1.57s0,.1,0,.19H41.67a1.57,1.57,0,0,0,.38,1,1.14,1.14,0,0,0,.86.36,1.06,1.06,0,0,0,.65-.2,1.32,1.32,0,0,0,.43-.64Zm-2.28-1.12H44a1.38,1.38,0,0,0-.26-.77,1.07,1.07,0,0,0-.86-.4,1.11,1.11,0,0,0-.81.32A1.27,1.27,0,0,0,41.71,82.53Z" transform="translate(-0.5 -0.5)"/><path class="cls-2" d="M45.58,85v-4.1h.62v.62a1.69,1.69,0,0,1,.44-.57.77.77,0,0,1,.45-.14,1.36,1.36,0,0,1,.71.22l-.24.65a1,1,0,0,0-.51-.15.66.66,0,0,0-.41.14.74.74,0,0,0-.26.38,2.69,2.69,0,0,0-.12.81V85Z" transform="translate(-0.5 -0.5)"/><path class="cls-2" d="M48.22,80.12v-.8h.7v.8Zm0,4.86v-4.1h.7V85Z" transform="translate(-0.5 -0.5)"/><path class="cls-2" d="M50,85v-4.1h.62v.57a1.46,1.46,0,0,1,.51-.48,1.44,1.44,0,0,1,.73-.18,1.34,1.34,0,0,1,.75.19,1,1,0,0,1,.41.53,1.48,1.48,0,0,1,1.27-.72,1.25,1.25,0,0,1,.94.34,1.44,1.44,0,0,1,.33,1V85h-.69V82.39a1.92,1.92,0,0,0-.07-.6.6.6,0,0,0-.25-.3.78.78,0,0,0-.42-.11,1,1,0,0,0-.72.29,1.27,1.27,0,0,0-.29.92V85h-.69V82.31a1.17,1.17,0,0,0-.17-.7.64.64,0,0,0-.56-.23,1,1,0,0,0-.54.16.87.87,0,0,0-.36.45,2.54,2.54,0,0,0-.11.86V85Z" transform="translate(-0.5 -0.5)"/><path class="cls-2" d="M56.56,80.12v-.8h.7v.8Zm0,4.86v-4.1h.7V85Z" transform="translate(-0.5 -0.5)"/><path class="cls-2" d="M58,83.75l.69-.11a1,1,0,0,0,.32.63,1.12,1.12,0,0,0,.74.22,1.09,1.09,0,0,0,.71-.2.59.59,0,0,0,.23-.46.42.42,0,0,0-.21-.37,3,3,0,0,0-.71-.23,6.43,6.43,0,0,1-1.06-.33,1,1,0,0,1-.6-.94,1,1,0,0,1,.13-.51,1.11,1.11,0,0,1,.34-.39,1.46,1.46,0,0,1,.44-.2,2.11,2.11,0,0,1,.6-.08,2.39,2.39,0,0,1,.85.14,1.15,1.15,0,0,1,.54.38,1.47,1.47,0,0,1,.24.64l-.68.09a.75.75,0,0,0-.27-.49,1,1,0,0,0-.63-.18,1.13,1.13,0,0,0-.68.16.46.46,0,0,0-.21.37.38.38,0,0,0,.09.24.62.62,0,0,0,.27.19l.61.18a8.45,8.45,0,0,1,1,.32,1,1,0,0,1,.46.37,1,1,0,0,1,.17.59,1.18,1.18,0,0,1-.2.65,1.32,1.32,0,0,1-.59.47,2.13,2.13,0,0,1-.86.17,1.93,1.93,0,0,1-1.22-.33A1.54,1.54,0,0,1,58,83.75Z" transform="translate(-0.5 -0.5)"/><path class="cls-2" d="M62.44,85V81.42h-.61v-.54h.61v-.44a1.91,1.91,0,0,1,.07-.61.89.89,0,0,1,.35-.44,1.27,1.27,0,0,1,.71-.17,3.3,3.3,0,0,1,.65.07l-.1.61a2.27,2.27,0,0,0-.41,0,.6.6,0,0,0-.45.14.73.73,0,0,0-.13.51v.38h.8v.54h-.8V85Z" transform="translate(-0.5 -0.5)"/><path class="cls-2" d="M64.21,82.93a2.11,2.11,0,0,1,.63-1.69,1.91,1.91,0,0,1,1.29-.46,1.84,1.84,0,0,1,1.38.55,2.1,2.1,0,0,1,.54,1.53,2.71,2.71,0,0,1-.24,1.25,1.68,1.68,0,0,1-.69.7,2,2,0,0,1-1,.25,1.84,1.84,0,0,1-1.39-.55,2.2,2.2,0,0,1-.53-1.59Zm.71,0a1.74,1.74,0,0,0,.34,1.18,1.14,1.14,0,0,0,1.73,0,1.79,1.79,0,0,0,.34-1.2A1.69,1.69,0,0,0,67,81.75a1.15,1.15,0,0,0-1.72,0A1.74,1.74,0,0,0,64.92,82.93Z" transform="translate(-0.5 -0.5)"/><path class="cls-2" d="M68.87,85v-4.1h.62v.58a1.47,1.47,0,0,1,1.3-.68,1.72,1.72,0,0,1,.68.13,1.06,1.06,0,0,1,.47.35,1.33,1.33,0,0,1,.22.51,4.05,4.05,0,0,1,0,.68V85h-.7V82.48a1.89,1.89,0,0,0-.08-.64.67.67,0,0,0-.29-.33.91.91,0,0,0-.49-.13,1.13,1.13,0,0,0-.77.28,1.39,1.39,0,0,0-.32,1.07V85Z" transform="translate(-0.5 -0.5)"/><path class="cls-2" d="M75.92,85v-.52a1.27,1.27,0,0,1-1.15.61,1.6,1.6,0,0,1-.9-.27,1.77,1.77,0,0,1-.64-.76A2.61,2.61,0,0,1,73,82.93a2.93,2.93,0,0,1,.2-1.11,1.61,1.61,0,0,1,.61-.77,1.64,1.64,0,0,1,.92-.27,1.37,1.37,0,0,1,1.13.56v-2h.69V85Zm-2.2-2a1.78,1.78,0,0,0,.33,1.18,1,1,0,0,0,.78.39,1,1,0,0,0,.77-.37A1.72,1.72,0,0,0,75.94,83a1.92,1.92,0,0,0-.32-1.23,1,1,0,0,0-.8-.39,1,1,0,0,0-.77.38A1.87,1.87,0,0,0,73.73,82.93Z" transform="translate(-0.5 -0.5)"/><path class="cls-2" d="M77.66,80.12v-.8h.7v.8Zm0,4.86v-4.1h.7V85Z" transform="translate(-0.5 -0.5)"/><path class="cls-2" d="M82.08,85v-.52a1.27,1.27,0,0,1-1.15.61,1.6,1.6,0,0,1-.9-.27,1.77,1.77,0,0,1-.64-.76,2.61,2.61,0,0,1-.23-1.11,2.93,2.93,0,0,1,.2-1.11,1.61,1.61,0,0,1,.61-.77,1.64,1.64,0,0,1,.92-.27,1.37,1.37,0,0,1,1.13.56v-2h.69V85Zm-2.2-2a1.78,1.78,0,0,0,.33,1.18,1,1,0,0,0,.78.39,1,1,0,0,0,.77-.37A1.72,1.72,0,0,0,82.09,83a1.92,1.92,0,0,0-.32-1.23,1,1,0,0,0-.8-.39,1,1,0,0,0-.77.38A1.87,1.87,0,0,0,79.88,82.93Z" transform="translate(-0.5 -0.5)"/><rect class="cls-3" x="5.66" y="5.52" width="77.93" height="52.13"/><polygon class="cls-4" points="45.2 13.11 47.45 13.11 45.63 14.47 46.34 16.63 44.53 15.3 42.73 16.63 43.44 14.47 41.62 13.11 43.86 13.11 44.53 11.02 45.2 13.11"/><polygon class="cls-4" points="45.3 47.85 47.54 47.85 45.74 49.21 46.43 51.36 44.63 50.03 42.83 51.36 43.54 49.21 41.72 47.85 43.95 47.85 44.63 45.75 45.3 47.85"/><polygon class="cls-4" points="53.9 45.55 56.14 45.55 54.33 46.91 55.03 49.05 53.23 47.73 51.42 49.05 52.14 46.91 50.31 45.55 52.55 45.55 53.23 43.44 53.9 45.55"/><polygon class="cls-4" points="53.9 15.4 56.14 15.4 54.33 16.76 55.03 18.91 53.23 17.59 51.42 18.91 52.14 16.76 50.31 15.4 52.55 15.4 53.23 13.3 53.9 15.4"/><polygon class="cls-4" points="60.28 21.78 62.52 21.78 60.72 23.14 61.42 25.3 59.62 23.97 57.81 25.3 58.52 23.14 56.69 21.78 58.94 21.78 59.62 19.69 60.28 21.78"/><polygon class="cls-4" points="60.28 39.25 62.52 39.25 60.72 40.61 61.42 42.76 59.62 41.44 57.81 42.76 58.52 40.61 56.69 39.25 58.94 39.25 59.62 37.15 60.28 39.25"/><polygon class="cls-4" points="62.67 30.39 64.92 30.39 63.11 31.74 63.81 33.9 62.01 32.57 60.2 33.9 60.92 31.74 59.09 30.39 61.33 30.39 62.01 28.28 62.67 30.39"/><polygon class="cls-4" points="36.43 15.43 38.68 15.43 36.87 16.79 37.57 18.93 35.77 17.61 33.96 18.93 34.67 16.79 32.85 15.43 35.09 15.43 35.77 13.32 36.43 15.43"/><polygon class="cls-4" points="30.22 21.81 32.47 21.81 30.66 23.16 31.36 25.32 29.56 23.99 27.76 25.32 28.47 23.16 26.64 21.81 28.88 21.81 29.56 19.71 30.22 21.81"/><polygon class="cls-4" points="27.92 30.41 30.16 30.41 28.36 31.76 29.06 33.92 27.26 32.59 25.46 33.92 26.16 31.76 24.34 30.41 26.58 30.41 27.26 28.31 27.92 30.41"/><polygon class="cls-4" points="30.22 39.27 32.47 39.27 30.66 40.63 31.36 42.78 29.56 41.46 27.76 42.78 28.47 40.63 26.64 39.27 28.88 39.27 29.56 37.17 30.22 39.27"/><polygon class="cls-4" points="36.52 45.57 38.76 45.57 36.95 46.93 37.66 49.08 35.86 47.75 34.05 49.08 34.76 46.93 32.94 45.57 35.18 45.57 35.86 43.47 36.52 45.57"/><path class="cls-5" d="M127.5,16.41A37.45,37.45,0,0,1,144,22l.33.22a38.07,38.07,0,0,0-54.58-8A26.88,26.88,0,0,1,104,22,37.49,37.49,0,0,1,127.5,16.41Z" transform="translate(-0.5 -0.5)"/><path class="cls-6" d="M150.9,40.36h0s0,0,0,.05Z" transform="translate(-0.5 -0.5)"/><path class="cls-7" d="M150.93,40.79l-.06-.75a36.5,36.5,0,0,0-6.51-17.81L144,22A37.6,37.6,0,0,0,104,22a27,27,0,0,1,7.43,16.39,27.44,27.44,0,0,1,0,4.79,27,27,0,0,1-9.11,17.83l.06-.05a66.9,66.9,0,0,1,43.18-8,23.73,23.73,0,0,1-5.15,3.3,80.75,80.75,0,0,0,9.4-3.65h0A35,35,0,0,0,150.93,40.79Z" transform="translate(-0.5 -0.5)"/><path class="cls-6" d="M150.27,39.93c-4.83-3.27-8.8-5.24-17.21-6A37.46,37.46,0,0,0,115,36.69a25.69,25.69,0,0,1,0,4.72,25.39,25.39,0,0,1-10.76,18.5c15.3-8.8,29.21-10,41-8.18.78.12,3.2.54,4.32.84A39.21,39.21,0,0,0,150.27,39.93Z" transform="translate(-0.5 -0.5)"/><polygon class="cls-2" points="118.85 68.36 118.85 62.7 122.94 62.7 122.94 63.37 119.6 63.37 119.6 65.1 122.73 65.1 122.73 65.76 119.6 65.76 119.6 67.69 123.08 67.69 123.08 68.36 118.85 68.36"/><path class="cls-2" d="M127.33,67.54l.72.09a1.76,1.76,0,0,1-.63,1,1.9,1.9,0,0,1-1.17.35,1.87,1.87,0,0,1-1.43-.55,2.16,2.16,0,0,1-.53-1.55,2.27,2.27,0,0,1,.53-1.61,1.8,1.8,0,0,1,1.38-.57,1.75,1.75,0,0,1,1.34.56,2.22,2.22,0,0,1,.52,1.57s0,.1,0,.19H125a1.57,1.57,0,0,0,.38,1,1.14,1.14,0,0,0,.86.36,1.06,1.06,0,0,0,.65-.2,1.32,1.32,0,0,0,.43-.64ZM125,66.41h2.29a1.38,1.38,0,0,0-.26-.77,1.07,1.07,0,0,0-.86-.4,1.11,1.11,0,0,0-.81.32A1.27,1.27,0,0,0,125,66.41Z" transform="translate(-0.5 -0.5)"/><path class="cls-2" d="M128.64,67.63l.69-.11a1,1,0,0,0,.32.63,1.12,1.12,0,0,0,.74.22,1.09,1.09,0,0,0,.71-.2.59.59,0,0,0,.23-.46.42.42,0,0,0-.21-.37,3,3,0,0,0-.71-.23,6.42,6.42,0,0,1-1.06-.33,1,1,0,0,1-.6-.94,1,1,0,0,1,.13-.51,1.11,1.11,0,0,1,.34-.39,1.46,1.46,0,0,1,.44-.2,2.12,2.12,0,0,1,.6-.08,2.39,2.39,0,0,1,.85.14,1.15,1.15,0,0,1,.54.38,1.47,1.47,0,0,1,.24.64l-.68.09a.75.75,0,0,0-.27-.49,1,1,0,0,0-.63-.18,1.13,1.13,0,0,0-.68.16.46.46,0,0,0-.21.37.38.38,0,0,0,.09.24.62.62,0,0,0,.27.19l.61.18a8.46,8.46,0,0,1,1,.32,1,1,0,0,1,.46.37,1,1,0,0,1,.17.59,1.18,1.18,0,0,1-.2.65,1.32,1.32,0,0,1-.59.47,2.12,2.12,0,0,1-.86.17,1.93,1.93,0,0,1-1.22-.33A1.54,1.54,0,0,1,128.64,67.63Z" transform="translate(-0.5 -0.5)"/><path class="cls-2" d="M134.39,68.24l.1.61a2.6,2.6,0,0,1-.52.06,1.19,1.19,0,0,1-.59-.12.67.67,0,0,1-.29-.32,2.47,2.47,0,0,1-.09-.82V65.3h-.51v-.54H133v-1l.69-.42v1.43h.7v.54h-.7v2.4a1.24,1.24,0,0,0,0,.38.3.3,0,0,0,.12.14.47.47,0,0,0,.24,0Z" transform="translate(-0.5 -0.5)"/><path class="cls-2" d="M135.07,64v-.8h.7V64Zm0,4.86v-4.1h.7v4.1Z" transform="translate(-0.5 -0.5)"/><path class="cls-2" d="M104.5,76.27l.1.61a2.6,2.6,0,0,1-.52.06,1.19,1.19,0,0,1-.59-.12.66.66,0,0,1-.29-.32,2.47,2.47,0,0,1-.09-.82V73.34h-.51V72.8h.51v-1l.69-.42V72.8h.7v.54h-.7v2.4a1.24,1.24,0,0,0,0,.38.3.3,0,0,0,.12.14.47.47,0,0,0,.24,0Z" transform="translate(-0.5 -0.5)"/><path class="cls-2" d="M107.87,76.9v-.6a1.5,1.5,0,0,1-1.3.69,1.66,1.66,0,0,1-.68-.14,1.11,1.11,0,0,1-.47-.35,1.29,1.29,0,0,1-.21-.52,3.6,3.6,0,0,1,0-.65V72.8h.69v2.27a4.15,4.15,0,0,0,0,.73.74.74,0,0,0,.28.43.87.87,0,0,0,.53.16,1.14,1.14,0,0,0,.59-.16.89.89,0,0,0,.39-.44,2.18,2.18,0,0,0,.11-.8V72.8h.69v4.1Z" transform="translate(-0.5 -0.5)"/><rect class="cls-2" x="109.06" y="70.73" width="0.69" height="5.66"/><path class="cls-2" d="M114.14,75.58l.72.09a1.76,1.76,0,0,1-.63,1,1.9,1.9,0,0,1-1.17.35,1.87,1.87,0,0,1-1.43-.55,2.16,2.16,0,0,1-.53-1.55,2.27,2.27,0,0,1,.53-1.61A1.81,1.81,0,0,1,113,72.7a1.75,1.75,0,0,1,1.34.56,2.22,2.22,0,0,1,.52,1.58s0,.1,0,.19h-3.06a1.57,1.57,0,0,0,.38,1,1.14,1.14,0,0,0,.86.36,1.06,1.06,0,0,0,.65-.2,1.32,1.32,0,0,0,.43-.64Zm-2.28-1.12h2.29a1.38,1.38,0,0,0-.26-.78,1.07,1.07,0,0,0-.86-.4,1.11,1.11,0,0,0-.81.32A1.27,1.27,0,0,0,111.86,74.45Z" transform="translate(-0.5 -0.5)"/><path class="cls-2" d="M116.87,76.9l-1.56-4.1H116l.88,2.46q.14.4.26.83c.06-.22.15-.48.26-.78l.91-2.5h.71l-1.55,4.1Z" transform="translate(-0.5 -0.5)"/><path class="cls-2" d="M119.69,72v-.8h.7V72Zm0,4.86V72.8h.7v4.1Z" transform="translate(-0.5 -0.5)"/><polygon class="cls-2" points="120.95 76.39 120.95 70.73 121.64 70.73 121.64 73.96 123.29 72.29 124.19 72.29 122.62 73.81 124.34 76.39 123.49 76.39 122.13 74.3 121.64 74.77 121.64 76.39 120.95 76.39"/><path class="cls-2" d="M128.08,76.9v-.6a1.5,1.5,0,0,1-1.3.69,1.66,1.66,0,0,1-.68-.14,1.11,1.11,0,0,1-.47-.35,1.29,1.29,0,0,1-.21-.52,3.59,3.59,0,0,1,0-.65V72.8h.69v2.27a4.14,4.14,0,0,0,0,.73.74.74,0,0,0,.28.43.87.87,0,0,0,.53.16,1.14,1.14,0,0,0,.59-.16.89.89,0,0,0,.39-.44A2.18,2.18,0,0,0,128,75V72.8h.69v4.1Z" transform="translate(-0.5 -0.5)"/><path class="cls-2" d="M132,76.9V71.24h.69v2a1.55,1.55,0,0,1,1.23-.56,1.65,1.65,0,0,1,.79.18,1.05,1.05,0,0,1,.48.5,2.3,2.3,0,0,1,.14.92v2.6h-.7V74.3a1.07,1.07,0,0,0-.23-.76.84.84,0,0,0-.64-.24,1.13,1.13,0,0,0-.58.16.9.9,0,0,0-.39.43,2,2,0,0,0-.12.76V76.9Z" transform="translate(-0.5 -0.5)"/><path class="cls-2" d="M139.2,75.58l.72.09a1.76,1.76,0,0,1-.63,1,1.9,1.9,0,0,1-1.17.35,1.87,1.87,0,0,1-1.43-.55,2.16,2.16,0,0,1-.53-1.55,2.27,2.27,0,0,1,.53-1.61,1.8,1.8,0,0,1,1.38-.57,1.75,1.75,0,0,1,1.34.56,2.22,2.22,0,0,1,.52,1.58s0,.1,0,.19h-3.06a1.57,1.57,0,0,0,.38,1,1.14,1.14,0,0,0,.86.36,1.06,1.06,0,0,0,.65-.2,1.32,1.32,0,0,0,.43-.64Zm-2.28-1.12h2.29a1.38,1.38,0,0,0-.26-.78,1.07,1.07,0,0,0-.86-.4,1.11,1.11,0,0,0-.81.32A1.27,1.27,0,0,0,136.91,74.45Z" transform="translate(-0.5 -0.5)"/><path class="cls-2" d="M143.46,76.39a2.64,2.64,0,0,1-.74.46A2.17,2.17,0,0,1,142,77a1.49,1.49,0,0,1-1-.33,1.09,1.09,0,0,1-.36-.84,1.11,1.11,0,0,1,.14-.55,1.13,1.13,0,0,1,.36-.4,1.7,1.7,0,0,1,.5-.23,4.92,4.92,0,0,1,.62-.1,6.29,6.29,0,0,0,1.24-.24c0-.09,0-.16,0-.18a.76.76,0,0,0-.2-.6,1.15,1.15,0,0,0-.79-.24,1.23,1.23,0,0,0-.72.17,1.06,1.06,0,0,0-.35.61l-.68-.09a1.68,1.68,0,0,1,.3-.7,1.33,1.33,0,0,1,.61-.41,2.74,2.74,0,0,1,.93-.15,2.47,2.47,0,0,1,.85.12,1.14,1.14,0,0,1,.48.31,1.1,1.1,0,0,1,.22.47,4,4,0,0,1,0,.64v.93a9.63,9.63,0,0,0,0,1.23,1.55,1.55,0,0,0,.18.49h-.73a1.47,1.47,0,0,1-.14-.51Zm-.06-1.55a5.08,5.08,0,0,1-1.13.26,2.61,2.61,0,0,0-.61.14.61.61,0,0,0-.16,1,.91.91,0,0,0,.62.18,1.43,1.43,0,0,0,.71-.18,1.09,1.09,0,0,0,.46-.48,1.67,1.67,0,0,0,.11-.69Z" transform="translate(-0.5 -0.5)"/><polygon class="cls-2" points="144.69 76.39 144.69 70.73 145.38 70.73 145.38 73.96 147.03 72.29 147.93 72.29 146.36 73.81 148.09 76.39 147.23 76.39 145.87 74.3 145.38 74.77 145.38 76.39 144.69 76.39"/><path class="cls-2" d="M148.86,75.67l.69-.11a1,1,0,0,0,.32.63,1.12,1.12,0,0,0,.74.22,1.09,1.09,0,0,0,.71-.2.59.59,0,0,0,.23-.46.42.42,0,0,0-.21-.37,3,3,0,0,0-.71-.23,6.43,6.43,0,0,1-1.06-.33,1,1,0,0,1-.6-.94,1,1,0,0,1,.13-.51,1.11,1.11,0,0,1,.34-.39,1.46,1.46,0,0,1,.44-.2,2.11,2.11,0,0,1,.6-.08,2.38,2.38,0,0,1,.85.14,1.15,1.15,0,0,1,.54.38,1.47,1.47,0,0,1,.24.64l-.68.09a.75.75,0,0,0-.27-.49,1,1,0,0,0-.63-.18,1.13,1.13,0,0,0-.68.16.46.46,0,0,0-.21.37.39.39,0,0,0,.09.24.62.62,0,0,0,.27.19l.61.18a8.46,8.46,0,0,1,1,.32,1,1,0,0,1,.46.37,1,1,0,0,1,.17.59,1.18,1.18,0,0,1-.2.65,1.32,1.32,0,0,1-.59.47,2.13,2.13,0,0,1-.86.17,1.93,1.93,0,0,1-1.22-.33A1.54,1.54,0,0,1,148.86,75.67Z" transform="translate(-0.5 -0.5)"/></svg>